<svg width="132" height="20" viewBox="0 0 132 20" fill="none" xmlns="http://www.w3.org/2000/svg">
<path d="M11.66 16L7.92002 10.82C9.36002 10.1 10.24 8.74001 10.24 7.06001C10.24 4.52001 8.24002 2.80001 5.48002 2.80001H0.52002V16H3.22002V11.34H5.20002L8.62002 16H11.66ZM3.22002 5.18001H5.48002C6.70002 5.18001 7.48002 5.94001 7.48002 7.06001C7.48002 8.20001 6.74002 8.96001 5.48002 8.96001H3.22002V5.18001ZM13.133 16H15.833V6.10001H13.133V16ZM12.753 2.50001C12.753 3.44001 13.513 4.16001 14.473 4.16001C15.433 4.16001 16.213 3.44001 16.213 2.50001C16.213 1.54001 15.433 0.820007 14.473 0.820007C13.513 0.820007 12.753 1.54001 12.753 2.50001ZM25.9641 6.10001V7.34001C25.2641 6.40001 24.1441 5.88001 22.7241 5.88001C20.0241 5.88001 17.9841 7.84001 17.9841 10.78C17.9841 13.68 19.9841 15.7 22.7241 15.7C23.9841 15.7 25.0241 15.3 25.7441 14.52V15.06C25.7441 16.6 24.7041 17.4 23.1041 17.4C21.9041 17.4 20.9841 16.94 19.8841 16.12L18.4641 18C19.8441 19.22 21.4641 19.84 23.3241 19.84C26.4241 19.84 28.4441 18.12 28.4441 14.9V6.10001H25.9641ZM25.7841 10.74C25.7841 12.44 24.6441 13.42 23.2841 13.42C21.8441 13.42 20.7241 12.36 20.7241 10.76C20.7241 9.16001 21.8241 8.18001 23.2841 8.18001C24.6641 8.18001 25.7841 9.04001 25.7841 10.74ZM40.2213 11.96C40.3412 11.46 40.4013 10.96 40.4013 10.48C40.4013 7.90001 38.4813 5.88001 35.7413 5.88001C32.8813 5.82001 30.5013 8.20001 30.5613 11.06C30.5013 13.92 32.9213 16.3 35.9813 16.24C37.4413 16.24 38.7613 15.74 39.9413 14.76L38.8213 12.92C37.9613 13.58 37.0413 13.92 36.0613 13.92C34.6213 13.92 33.6013 13.22 33.2813 11.96H40.2213ZM33.2813 10.06C33.5813 8.84001 34.5013 8.06001 35.6413 8.06001C36.8213 8.06001 37.7613 8.84001 37.7813 10.06H33.2813ZM42.508 16H45.208V1.00001H42.508V16ZM53.665 16H56.365V11.34H58.625C61.385 11.34 63.385 9.58001 63.385 7.06001C63.385 4.52001 61.385 2.80001 58.625 2.80001H53.665V16ZM56.365 8.98001V5.18001H58.625C59.845 5.18001 60.625 5.94001 60.625 7.06001C60.625 8.20001 59.885 8.98001 58.625 8.98001H56.365ZM71.44 6.10001C71.18 6.02001 70.9 5.98001 70.56 5.98001C69.46 5.98001 68.5 6.46001 67.84 7.28001V6.10001H65.36V16H68.06V11.06C68.06 9.36001 69.1 8.48001 70.72 8.48001H71.44V6.10001ZM72.358 11.04C72.298 13.86 74.738 16.28 77.638 16.22C80.538 16.28 83.038 13.86 82.978 11.04C83.038 8.22001 80.558 5.84001 77.658 5.88001C74.758 5.82001 72.298 8.22001 72.358 11.04ZM80.218 11.06C80.218 12.6 79.118 13.74 77.658 13.74C76.158 13.74 75.098 12.6 75.098 11.06C75.098 9.48001 76.158 8.34001 77.658 8.34001C79.118 8.34001 80.218 9.52001 80.218 11.06ZM91.446 13.74C90.746 13.8 90.326 13.82 90.166 13.82C88.886 13.82 88.326 13.4 88.326 12.28V8.38001H91.126V6.10001H88.326V3.60001H85.626V6.10001H84.066V8.38001H85.626V12.52C85.626 15 87.086 16.24 89.586 16.24C90.186 16.24 90.806 16.16 91.446 16V13.74ZM92.651 11.04C92.591 13.86 95.031 16.28 97.931 16.22C100.831 16.28 103.331 13.86 103.271 11.04C103.331 8.22001 100.851 5.84001 97.951 5.88001C95.051 5.82001 92.591 8.22001 92.651 11.04ZM100.511 11.06C100.511 12.6 99.411 13.74 97.951 13.74C96.451 13.74 95.391 12.6 95.391 11.06C95.391 9.48001 96.451 8.34001 97.951 8.34001C99.411 8.34001 100.511 9.52001 100.511 11.06ZM104.819 11.04C104.779 13.9 107.219 16.3 110.119 16.24C112.039 16.24 113.559 15.3 114.419 13.78L112.539 12.34C111.899 13.24 111.179 13.76 110.159 13.76C108.639 13.76 107.559 12.62 107.559 11.04C107.559 9.50001 108.639 8.34001 110.159 8.34001C111.199 8.34001 111.919 8.88001 112.539 9.78001L114.419 8.32001C113.559 6.80001 112.059 5.88001 110.119 5.88001C107.179 5.88001 104.819 8.14001 104.819 11.04ZM115.659 11.04C115.599 13.86 118.039 16.28 120.939 16.22C123.839 16.28 126.339 13.86 126.279 11.04C126.339 8.22001 123.859 5.84001 120.959 5.88001C118.059 5.82001 115.599 8.22001 115.659 11.04ZM123.519 11.06C123.519 12.6 122.419 13.74 120.959 13.74C119.459 13.74 118.399 12.6 118.399 11.06C118.399 9.48001 119.459 8.34001 120.959 8.34001C122.419 8.34001 123.519 9.52001 123.519 11.06ZM128.387 16H131.087V1.00001H128.387V16Z" fill="#333333"/>
</svg>
