<svg width="330" height="359" viewBox="0 0 330 359" fill="none" xmlns="http://www.w3.org/2000/svg">
<path d="M0 5.06001C0 2.26558 2.27609 0.000244141 5.08379 0.000244141H415.177C417.984 0.000244141 420.26 2.26557 420.26 5.06V355.87C420.26 358.665 417.984 360.93 415.177 360.93H5.08379C2.27609 360.93 0 358.665 0 355.87V5.06001Z" fill="url(#paint0_linear_4647_122726)"/>
<path d="M13.5558 52.2873C13.5558 49.4929 15.8319 47.2275 18.6395 47.2275H401.619C404.427 47.2275 406.702 49.4929 406.702 52.2873V128.184C406.702 130.978 404.427 133.243 401.619 133.243H18.6395C15.8319 133.243 13.5558 130.978 13.5558 128.184V52.2873Z" fill="#15202B"/>
<path d="M291.472 64.089C291.472 62.2261 292.989 60.7158 294.861 60.7158H389.758C391.63 60.7158 393.147 62.2261 393.147 64.089V91.0744C393.147 92.9372 391.63 94.4475 389.758 94.4475H294.861C292.989 94.4475 291.472 92.9372 291.472 91.0744V64.089Z" fill="#213345"/>
<path d="M315.195 87.7009C320.81 87.7009 325.362 83.1703 325.362 77.5814C325.362 71.9926 320.81 67.4619 315.195 67.4619C309.579 67.4619 305.027 71.9926 305.027 77.5814C305.027 83.1703 309.579 87.7009 315.195 87.7009Z" fill="#120136"/>
<path d="M320.127 82.4567H317.067L315.029 79.4419L318.019 79.5003L320.127 82.4567Z" fill="url(#paint1_linear_4647_122726)"/>
<path d="M320.127 76.3646C320.127 77.3677 319.718 78.2788 319.057 78.9364C318.397 79.594 317.485 80.0008 316.474 80.0008H315.418L313.733 77.6045H316.451C316.792 77.6045 317.103 77.4652 317.328 77.2423C317.551 77.0194 317.691 76.7101 317.691 76.3701C317.691 75.6903 317.137 75.1358 316.451 75.1358H314.982L313.346 72.8203L313.279 72.7256H316.474C318.492 72.7284 320.127 74.3556 320.127 76.3646Z" fill="url(#paint2_linear_4647_122726)"/>
<path d="M315.253 76.3518H314.822L312.272 72.7295L312.709 72.7323L315.253 76.3518Z" fill="url(#paint3_linear_4647_122726)"/>
<path d="M313.292 76.3518H312.861L310.311 72.7295L310.748 72.7323L313.292 76.3518Z" fill="url(#paint4_linear_4647_122726)"/>
<path d="M314.272 76.3518H313.842L311.291 72.7295L311.728 72.7323L314.272 76.3518Z" fill="url(#paint5_linear_4647_122726)"/>
<path d="M294.861 61.5587H389.758V59.8721H294.861V61.5587ZM392.3 64.0885V91.0739H393.995V64.0885H392.3ZM389.758 93.6038H294.861V95.2904H389.758V93.6038ZM292.319 91.0739V64.0885H290.624V91.0739H292.319ZM294.861 93.6038C293.457 93.6038 292.319 92.4713 292.319 91.0739H290.624C290.624 93.4022 292.521 95.2904 294.861 95.2904V93.6038ZM392.3 91.0739C392.3 92.4713 391.162 93.6038 389.758 93.6038V95.2904C392.098 95.2904 393.995 93.4022 393.995 91.0739H392.3ZM389.758 61.5587C391.162 61.5587 392.3 62.6913 392.3 64.0885H393.995C393.995 61.7599 392.098 59.8721 389.758 59.8721V61.5587ZM294.861 59.8721C292.521 59.8721 290.624 61.7599 290.624 64.0885H292.319C292.319 62.6913 293.457 61.5587 294.861 61.5587V59.8721Z" fill="#324D68"/>
<path d="M38.177 79.3145H36.3468V75.206H34.1913V79.3145H30.1852L33.9879 70.126H31.7714L27.4807 80.5693V81.1563H34.1913V83.4838H36.3468V81.1563H38.177V79.3145ZM40.1912 82.148C40.1912 83.0385 40.903 83.7064 41.7977 83.7064C42.6925 83.7064 43.3635 83.0385 43.3635 82.148C43.3635 81.2372 42.6925 80.5693 41.7977 80.5693C40.903 80.5693 40.1912 81.2575 40.1912 82.148ZM55.8908 79.3145H54.0607V75.206H51.9051V79.3145H47.8991L51.7018 70.126H49.4853L45.1945 80.5693V81.1563H51.9051V83.4838H54.0607V81.1563H55.8908V79.3145ZM66.2927 79.1931C66.2927 78.0394 65.947 77.1084 65.2556 76.4001C64.5642 75.6917 63.7305 75.2465 62.7341 75.0845L65.9877 70.7129V70.126H57.6299V72.0892H62.6324L59.5008 76.2786V76.8656H60.9852C62.9577 76.8656 64.0762 77.6954 64.0762 79.2133C64.0762 80.7312 62.9374 81.7432 61.3309 81.7432C59.9481 81.7432 58.9924 80.9943 58.179 79.7598L56.6742 80.8122C57.5689 82.5325 59.2161 83.7064 61.3919 83.7064C64.0355 83.7064 66.2927 81.9051 66.2927 79.1931ZM72.4333 70.126L67.7766 71.6439L68.3053 73.5261L71.0302 72.6559V83.4838H73.1857V70.126H72.4333ZM80.3568 70.126L75.7001 71.6439L76.2288 73.5261L78.9537 72.6559V83.4838H81.1093V70.126H80.3568Z" fill="#F1F5F8"/>
<path d="M34.6064 111.6C34.6064 110.596 34.037 109.841 33.0762 109.557C33.5507 109.191 33.8235 108.672 33.8235 108.022C33.8235 107.444 33.6218 106.972 33.2185 106.606C32.8152 106.24 32.2696 106.051 31.5934 106.051H28.9007V113.843H32.1272C33.6574 113.843 34.6064 112.898 34.6064 111.6ZM31.4985 106.877C32.4 106.877 32.8745 107.338 32.8745 108.081C32.8745 108.825 32.3882 109.298 31.4985 109.298H29.8259V106.877H31.4985ZM33.6574 111.576C33.6574 112.438 33.0643 113.016 32.0323 113.016H29.8259V110.136H32.0323C33.0643 110.136 33.6574 110.714 33.6574 111.576ZM40.4688 110.301C40.4688 108.79 39.5791 107.963 38.215 107.963C37.2541 107.963 36.3882 108.377 35.8663 109.227L36.4712 109.723C36.9457 109.109 37.4558 108.802 38.1557 108.802C39.0216 108.802 39.5554 109.309 39.5554 110.254V110.75H37.7286C36.4831 110.75 35.6527 111.375 35.6527 112.355C35.6527 113.347 36.4831 113.973 37.6693 113.973C38.5115 113.973 39.1877 113.666 39.6147 113.099V113.843H40.4688V110.301ZM39.5554 111.635C39.5554 112.521 38.7369 113.217 37.7879 113.217C37.1118 113.217 36.5898 112.887 36.5898 112.308C36.5898 111.777 37.0287 111.493 37.8354 111.493H39.5554V111.635ZM42.4061 113.843H43.3195V104.988H42.4061V113.843ZM49.655 110.301C49.655 108.79 48.7654 107.963 47.4012 107.963C46.4404 107.963 45.5744 108.377 45.0525 109.227L45.6575 109.723C46.132 109.109 46.642 108.802 47.3419 108.802C48.2078 108.802 48.7416 109.309 48.7416 110.254V110.75H46.9149C45.6693 110.75 44.839 111.375 44.839 112.355C44.839 113.347 45.6693 113.973 46.8556 113.973C47.6978 113.973 48.3739 113.666 48.801 113.099V113.843H49.655V110.301ZM48.7416 111.635C48.7416 112.521 47.9232 113.217 46.9742 113.217C46.298 113.217 45.7761 112.887 45.7761 112.308C45.7761 111.777 46.215 111.493 47.0216 111.493H48.7416V111.635ZM56.3728 110.23C56.3728 108.872 55.5662 107.963 54.2258 107.963C53.5022 107.963 52.8735 108.235 52.4465 108.707V108.093H51.5924V113.843H52.5058V110.336C52.5058 109.439 53.1345 108.802 54.0241 108.802C54.9138 108.802 55.4595 109.427 55.4595 110.336V113.843H56.3728V110.23ZM57.896 110.962C57.896 112.627 59.2483 113.973 60.9209 113.973C61.9292 113.973 62.7714 113.489 63.2933 112.721L62.6409 112.214C62.1783 112.828 61.6089 113.135 60.9328 113.135C59.7347 113.135 58.8331 112.166 58.8331 110.962C58.8331 109.77 59.7347 108.802 60.9328 108.802C61.6089 108.802 62.1901 109.109 62.6528 109.734L63.3052 109.215C62.7832 108.447 61.9292 107.963 60.9209 107.963C59.272 107.94 57.8604 109.321 57.896 110.962ZM69.8296 111.246C69.877 111.009 69.9007 110.785 69.9007 110.561C69.9007 109.038 68.762 107.963 67.2673 107.963C65.6185 107.963 64.3136 109.309 64.3136 110.974C64.3136 112.662 65.6541 113.973 67.3741 113.973C68.2875 113.973 69.0822 113.595 69.6872 112.969L69.1534 112.355C68.6315 112.875 68.0384 113.135 67.3859 113.135C66.2472 113.135 65.3694 112.379 65.2626 111.246H69.8296ZM65.2982 110.443C65.4999 109.451 66.2828 108.79 67.2436 108.79C68.2044 108.79 68.9518 109.416 68.9636 110.443H65.2982ZM71.4107 108.778C71.4107 109.203 71.7428 109.522 72.158 109.522C72.5732 109.522 72.9053 109.203 72.9053 108.778C72.9053 108.353 72.5732 108.034 72.158 108.034C71.7428 108.034 71.4107 108.353 71.4107 108.778ZM71.4107 113.229C71.4107 113.654 71.7428 113.973 72.158 113.973C72.5732 113.973 72.9053 113.654 72.9053 113.229C72.9053 112.804 72.5732 112.485 72.158 112.485C71.7428 112.485 71.4107 112.804 71.4107 113.229ZM83.3861 111.588H82.2473V108.991H81.3221V111.588H78.57L80.9188 106.051H79.9698L77.3957 112.131V112.391H81.3221V113.843H82.2473V112.391H83.3861V111.588ZM84.7902 113.229C84.7902 113.654 85.1224 113.973 85.5376 113.973C85.9527 113.973 86.2849 113.654 86.2849 113.229C86.2849 112.804 85.9527 112.485 85.5376 112.485C85.1224 112.485 84.7902 112.804 84.7902 113.229ZM93.5572 111.588H92.4185V108.991H91.4932V111.588H88.7412L91.0899 106.051H90.1409L87.5668 112.131V112.391H91.4932V113.843H92.4185V112.391H93.5572V111.588ZM99.7595 111.375C99.7595 109.77 98.5258 108.967 97.0786 108.967C96.699 108.967 96.3313 109.002 95.9636 109.061V106.877H99.3206V106.051H95.0383V109.77H96.8058C98.0869 109.77 98.7986 110.36 98.7986 111.387C98.7986 112.426 98.0276 113.123 96.9718 113.123C96.0347 113.123 95.406 112.639 94.9197 111.895L94.2791 112.367C94.8129 113.312 95.7382 113.973 96.9837 113.973C98.4546 113.973 99.7595 112.946 99.7595 111.375ZM106.635 111.588H105.497V108.991H104.571V111.588H101.819L104.168 106.051H103.219L100.645 112.131V112.391H104.571V113.843H105.497V112.391H106.635V111.588ZM113.366 111.588H112.227V108.991H111.302V111.588H108.55L110.899 106.051H109.95L107.376 112.131V112.391H111.302V113.843H112.227V112.391H113.366V111.588ZM124.138 113.843L121.635 110.466C122.667 110.171 123.284 109.357 123.284 108.306C123.284 106.995 122.299 106.051 120.781 106.051H118.029V113.843H118.954V110.573H120.627L123.058 113.843H124.138ZM118.954 106.877H120.745C121.742 106.877 122.323 107.468 122.323 108.318C122.323 109.179 121.754 109.746 120.745 109.746H118.954V106.877ZM124.724 109.947C124.689 112.178 126.551 114.008 128.793 113.973C129.564 113.973 130.264 113.796 130.893 113.43C131.533 113.064 132.031 112.568 132.375 111.954V109.876H128.781V110.702H131.45V111.753C130.916 112.603 129.979 113.146 128.84 113.146C127.037 113.182 125.65 111.718 125.685 109.935C125.65 108.176 127.014 106.736 128.793 106.771C129.837 106.771 130.679 107.243 131.284 108.058L131.984 107.515C131.26 106.511 130.122 105.921 128.793 105.921C126.551 105.886 124.689 107.715 124.724 109.947ZM134.085 113.843H135.01V110.584H136.837C138.356 110.584 139.34 109.64 139.34 108.306C139.34 106.995 138.356 106.051 136.837 106.051H134.085V113.843ZM135.01 109.758V106.877H136.814C137.81 106.877 138.379 107.468 138.379 108.318C138.379 109.179 137.81 109.758 136.814 109.758H135.01Z" fill="#DCE6EF"/>
<path d="M172.001 101.197H149.971C148.1 101.197 146.582 102.707 146.582 104.57V116.377C146.582 118.239 148.1 119.75 149.971 119.75H172.001C173.873 119.75 175.39 118.239 175.39 116.377V104.57C175.39 102.707 173.873 101.197 172.001 101.197Z" fill="#213345"/>
<path d="M158.197 105.924L154.911 110.281L151.625 105.924H151.187V113.846H152.444V108.947L154.698 111.886H155.125L157.367 108.958V113.846H158.624V105.924H158.197ZM165.078 110.34C165.078 108.781 164.129 107.92 162.694 107.92C161.685 107.92 160.819 108.321 160.238 109.159L160.962 109.891C161.448 109.313 161.923 109.029 162.575 109.029C163.37 109.029 163.821 109.466 163.821 110.269V110.647H162.172C160.855 110.647 160.025 111.296 160.025 112.3C160.025 113.303 160.831 113.976 162.053 113.976C162.848 113.976 163.488 113.705 163.915 113.197V113.846H165.078V110.34ZM163.821 111.65C163.821 112.441 163.156 113.02 162.314 113.02C161.709 113.02 161.294 112.736 161.294 112.252C161.294 111.78 161.662 111.544 162.326 111.544H163.821V111.65ZM171.829 113.846L169.658 110.847L171.675 108.049H170.252L168.959 109.962L167.654 108.049H166.23L168.235 110.836L166.076 113.846H167.5L168.947 111.721L170.406 113.846H171.829Z" fill="#4CAFFF"/>
<path d="M18.6422 48.0684H401.621V46.3818H18.6422V48.0684ZM405.858 52.2849V128.181H407.552V52.2849H405.858ZM401.621 132.398H18.6422V134.084H401.621V132.398ZM14.4057 128.181V52.2849H12.7111V128.181H14.4057ZM18.6422 132.398C16.3025 132.398 14.4057 130.51 14.4057 128.181H12.7111C12.7111 131.441 15.3666 134.084 18.6422 134.084V132.398ZM405.858 128.181C405.858 130.51 403.961 132.398 401.621 132.398V134.084C404.897 134.084 407.552 131.441 407.552 128.181H405.858ZM401.621 48.0684C403.961 48.0684 405.858 49.9562 405.858 52.2849H407.552C407.552 49.0247 404.897 46.3818 401.621 46.3818V48.0684ZM18.6422 46.3818C15.3666 46.3818 12.7111 49.0247 12.7111 52.2849H14.4057C14.4057 49.9562 16.3025 48.0684 18.6422 48.0684V46.3818Z" fill="#324D68"/>
<path d="M13.5558 199.015C13.5558 196.22 15.8319 193.955 18.6395 193.955H401.619C404.427 193.955 406.702 196.22 406.702 199.015V274.911C406.702 277.706 404.427 279.971 401.619 279.971H18.6395C15.8319 279.971 13.5558 277.706 13.5558 274.911V199.015Z" fill="#15202B"/>
<path d="M283.845 210.824C283.845 208.961 285.362 207.451 287.234 207.451H389.757C391.629 207.451 393.146 208.961 393.146 210.824V237.809C393.146 239.672 391.629 241.182 389.757 241.182H287.234C285.362 241.182 283.845 239.672 283.845 237.809V210.824Z" fill="#213345"/>
<path d="M307.571 234.434C313.186 234.434 317.739 229.903 317.739 224.314C317.739 218.725 313.186 214.195 307.571 214.195C301.956 214.195 297.403 218.725 297.403 224.314C297.403 229.903 301.956 234.434 307.571 234.434Z" fill="#120136"/>
<path d="M312.5 229.19H309.44L307.402 226.175L310.392 226.234L312.5 229.19Z" fill="url(#paint6_linear_4647_122726)"/>
<path d="M312.502 223.092C312.502 224.095 312.093 225.006 311.432 225.664C310.772 226.322 309.86 226.728 308.849 226.728H307.793L306.108 224.332H308.826C309.167 224.332 309.478 224.193 309.703 223.97C309.927 223.747 310.066 223.438 310.066 223.098C310.066 222.418 309.512 221.863 308.826 221.863H307.357L305.721 219.548L305.655 219.453H308.849C310.867 219.456 312.502 221.083 312.502 223.092Z" fill="url(#paint7_linear_4647_122726)"/>
<path d="M307.627 223.086H307.196L304.645 219.464L305.082 219.467L307.627 223.086Z" fill="url(#paint8_linear_4647_122726)"/>
<path d="M305.667 223.086H305.235L302.685 219.464L303.122 219.467L305.667 223.086Z" fill="url(#paint9_linear_4647_122726)"/>
<path d="M306.646 223.086H306.216L303.666 219.464L304.102 219.467L306.646 223.086Z" fill="url(#paint10_linear_4647_122726)"/>
<path d="M325.546 224.928C325.546 227.276 327.091 228.679 329.233 228.679C331.334 228.679 332.893 227.276 332.893 224.928V219.625H331.456V225.023C331.456 226.534 330.534 227.37 329.233 227.37C327.918 227.37 326.983 226.534 326.983 225.023V219.625H325.546V224.928ZM334.35 226.75C335.041 227.95 336.261 228.679 337.725 228.679C339.447 228.679 340.722 227.654 340.722 226.102C340.722 224.928 340.03 224.226 338.58 223.565L337.576 223.107C336.695 222.661 336.383 222.54 336.329 221.838C336.329 221.137 336.926 220.759 337.685 220.759C338.444 220.759 339.095 221.137 339.569 221.838L340.572 221.069C340.017 220.111 338.946 219.477 337.685 219.477C336.139 219.477 334.865 220.435 334.865 221.892C334.865 223.08 335.651 223.768 336.953 224.361L337.942 224.82C338.878 225.252 339.257 225.522 339.257 226.156C339.257 226.911 338.634 227.397 337.712 227.397C336.682 227.397 335.963 226.844 335.367 225.981L334.35 226.75ZM342.56 228.531H345.366C348.281 228.531 350.233 226.655 350.233 224.065C350.233 221.433 348.295 219.625 345.366 219.625H342.56V228.531ZM343.997 227.249V220.921H345.353C347.441 220.921 348.756 222.176 348.756 224.065C348.756 225.927 347.427 227.249 345.353 227.249H343.997ZM353.85 228.531H355.287V220.907H358.31V219.625H350.84V220.907H353.85V228.531Z" fill="#DCE6EF"/>
<path d="M317.774 224.277C317.774 230.686 312.579 235.881 306.17 235.881C299.761 235.881 294.565 230.686 294.565 224.277C294.565 217.867 299.761 212.672 306.17 212.672C312.579 212.672 317.774 217.867 317.774 224.277Z" fill="#1BA27A"/>
<path d="M311.616 218.524H300.628V221.177H304.795V225.076H307.448V221.177H311.616V218.524Z" fill="white"/>
<path d="M306.147 225.491C302.7 225.491 299.904 224.945 299.904 224.272C299.904 223.599 302.699 223.053 306.147 223.053C309.595 223.053 312.39 223.599 312.39 224.272C312.39 224.945 309.595 225.491 306.147 225.491ZM313.157 224.475C313.157 223.607 310.019 222.904 306.147 222.904C302.276 222.904 299.137 223.607 299.137 224.475C299.137 225.24 301.571 225.877 304.796 226.018V231.615H307.448V226.02C310.698 225.883 313.157 225.244 313.157 224.475Z" fill="white"/>
<path d="M287.234 208.292H389.757V206.605H287.234V208.292ZM392.299 210.821V237.807H393.994V210.821H392.299ZM389.757 240.337H287.234V242.023H389.757V240.337ZM284.692 237.807V210.821H282.997V237.807H284.692ZM287.234 240.337C285.83 240.337 284.692 239.204 284.692 237.807H282.997C282.997 240.135 284.895 242.023 287.234 242.023V240.337ZM392.299 237.807C392.299 239.204 391.161 240.337 389.757 240.337V242.023C392.096 242.023 393.994 240.135 393.994 237.807H392.299ZM389.757 208.292C391.161 208.292 392.299 209.424 392.299 210.821H393.994C393.994 208.493 392.096 206.605 389.757 206.605V208.292ZM287.234 206.605C284.895 206.605 282.997 208.493 282.997 210.821H284.692C284.692 209.424 285.83 208.292 287.234 208.292V206.605Z" fill="#324D68"/>
<path d="M31.9928 228.358L34.3516 225.868C35.2871 224.876 35.9988 224.026 36.4665 223.278C36.9545 222.529 37.1986 221.699 37.1986 220.788C37.1986 218.44 35.3074 216.639 32.7452 216.639C29.9999 216.639 28.2307 218.724 28.2307 220.91C28.2307 221.314 28.2714 221.699 28.3731 222.063H30.549C30.488 221.658 30.4473 221.314 30.4473 221.031C30.4473 219.655 31.3624 218.602 32.7248 218.602C34.0873 218.602 34.9617 219.594 34.9617 220.95C34.9617 222.083 34.311 223.055 32.8265 224.613L28.0477 229.734V230.22H37.6663V228.358H31.9928ZM40.0102 228.884C40.0102 229.774 40.722 230.442 41.6167 230.442C42.5115 230.442 43.1825 229.774 43.1825 228.884C43.1825 227.973 42.5115 227.305 41.6167 227.305C40.722 227.305 40.0102 227.993 40.0102 228.884ZM54.8604 225.828C54.8604 223.298 52.7862 221.355 50.4477 221.355C50.224 221.355 50.041 221.375 49.858 221.416L53.0913 216.862H50.5494L47.1941 221.577C46.7264 222.245 46.3807 222.751 46.157 223.116C45.9333 223.48 45.7503 223.885 45.5876 224.35C45.4452 224.795 45.3639 225.281 45.3639 225.807C45.3029 228.439 47.5601 230.483 50.102 230.442C52.6642 230.442 54.8604 228.438 54.8604 225.828ZM52.7252 225.828C52.7252 226.577 52.4609 227.224 51.9525 227.73C51.4441 228.236 50.8341 228.479 50.102 228.479C49.3496 228.479 48.7395 228.236 48.2312 227.73C47.7228 227.224 47.4788 226.577 47.4788 225.828C47.4788 225.079 47.7228 224.451 48.2312 223.945C48.7395 223.439 49.3496 223.176 50.102 223.176C50.8341 223.176 51.4441 223.439 51.9525 223.945C52.4609 224.451 52.7252 225.079 52.7252 225.828ZM65.794 225.929C65.794 224.775 65.4483 223.844 64.7569 223.136C64.0655 222.428 63.2317 221.982 62.2353 221.82L65.4889 217.449V216.862H57.1312V218.825H62.1336L59.002 223.014V223.601H60.4865C62.459 223.601 63.5774 224.431 63.5774 225.949C63.5774 227.467 62.4387 228.479 60.8322 228.479C59.4494 228.479 58.4936 227.73 57.6802 226.496L56.1754 227.548C57.0702 229.268 58.7173 230.442 60.8932 230.442C63.5368 230.442 65.794 228.641 65.794 225.929ZM77.1607 225.909C77.1607 223.217 74.9848 221.739 72.5852 221.739C71.9752 221.739 71.4058 221.8 70.8771 221.922V218.784H76.4083V216.862H68.7622V223.581H71.8532C73.8257 223.581 74.9441 224.431 74.9441 225.949C74.9441 227.487 73.7647 228.479 72.1582 228.479C70.7144 228.479 69.718 227.73 68.9046 226.496L67.3998 227.568C68.3149 229.289 70.0027 230.442 72.2192 230.442C74.8831 230.442 77.1607 228.6 77.1607 225.909ZM88.5601 225.828C88.5601 223.298 86.486 221.355 84.1477 221.355C83.9241 221.355 83.741 221.375 83.558 221.416L86.791 216.862H84.2494L80.8941 221.577C80.4264 222.245 80.0807 222.751 79.857 223.116C79.6333 223.48 79.4503 223.885 79.2876 224.35C79.1453 224.795 79.0639 225.281 79.0639 225.807C79.0029 228.439 81.2601 230.483 83.802 230.442C86.3639 230.442 88.5601 228.438 88.5601 225.828ZM86.4249 225.828C86.4249 226.577 86.1606 227.224 85.6522 227.73C85.1438 228.236 84.5341 228.479 83.802 228.479C83.0496 228.479 82.4396 228.236 81.9312 227.73C81.4228 227.224 81.1788 226.577 81.1788 225.828C81.1788 225.079 81.4228 224.451 81.9312 223.945C82.4396 223.439 83.0496 223.176 83.802 223.176C84.5341 223.176 85.1438 223.439 85.6522 223.945C86.1606 224.451 86.4249 225.079 86.4249 225.828Z" fill="#F1F5F8"/>
<path d="M34.328 258.333C34.328 257.329 33.7586 256.573 32.7977 256.29C33.2722 255.924 33.5451 255.405 33.5451 254.755C33.5451 254.177 33.3434 253.705 32.9401 253.339C32.5368 252.973 31.9911 252.784 31.315 252.784H28.6223V260.576H31.8488C33.379 260.576 34.328 259.631 34.328 258.333ZM31.2201 253.61C32.1216 253.61 32.5961 254.071 32.5961 254.814C32.5961 255.558 32.1097 256.03 31.2201 256.03H29.5475V253.61H31.2201ZM33.379 258.309C33.379 259.171 32.7859 259.749 31.7539 259.749H29.5475V256.869H31.7539C32.7859 256.869 33.379 257.447 33.379 258.309ZM40.1903 257.034C40.1903 255.523 39.3007 254.696 37.9365 254.696C36.9757 254.696 36.1098 255.11 35.5878 255.96L36.1928 256.455C36.6673 255.842 37.1773 255.535 37.8772 255.535C38.7432 255.535 39.277 256.042 39.277 256.987V257.483H37.4502C36.2046 257.483 35.3743 258.108 35.3743 259.088C35.3743 260.08 36.2046 260.706 37.3909 260.706C38.2331 260.706 38.9092 260.399 39.3363 259.832V260.576H40.1903V257.034ZM39.277 258.368C39.277 259.253 38.4585 259.95 37.5095 259.95C36.8333 259.95 36.3114 259.619 36.3114 259.041C36.3114 258.51 36.7503 258.226 37.5569 258.226H39.277V258.368ZM42.1277 260.576H43.0411V251.721H42.1277V260.576ZM49.3766 257.034C49.3766 255.523 48.4869 254.696 47.1228 254.696C46.1619 254.696 45.296 255.11 44.7741 255.96L45.379 256.455C45.8535 255.842 46.3636 255.535 47.0635 255.535C47.9294 255.535 48.4632 256.042 48.4632 256.987V257.483H46.6364C45.3909 257.483 44.5605 258.108 44.5605 259.088C44.5605 260.08 45.3909 260.706 46.5771 260.706C47.4193 260.706 48.0955 260.399 48.5225 259.832V260.576H49.3766V257.034ZM48.4632 258.368C48.4632 259.253 47.6447 259.95 46.6957 259.95C46.0196 259.95 45.4977 259.619 45.4977 259.041C45.4977 258.51 45.9366 258.226 46.7432 258.226H48.4632V258.368ZM56.0944 256.963C56.0944 255.605 55.2878 254.696 53.9473 254.696C53.2238 254.696 52.5951 254.968 52.168 255.44V254.826H51.3139V260.576H52.2273V257.069C52.2273 256.172 52.856 255.535 53.7457 255.535C54.6353 255.535 55.181 256.16 55.181 257.069V260.576H56.0944V256.963ZM57.6176 257.695C57.6176 259.36 58.9699 260.706 60.6424 260.706C61.6507 260.706 62.4929 260.222 63.0149 259.454L62.3625 258.947C61.8998 259.56 61.3305 259.867 60.6543 259.867C59.4562 259.867 58.5547 258.899 58.5547 257.695C58.5547 256.503 59.4562 255.535 60.6543 255.535C61.3305 255.535 61.9117 255.842 62.3743 256.467L63.0267 255.948C62.5048 255.18 61.6507 254.696 60.6424 254.696C58.9936 254.673 57.582 256.054 57.6176 257.695ZM69.5511 257.978C69.5986 257.742 69.6223 257.518 69.6223 257.294C69.6223 255.771 68.4835 254.696 66.9889 254.696C65.34 254.696 64.0352 256.042 64.0352 257.707C64.0352 259.395 65.3756 260.706 67.0956 260.706C68.009 260.706 68.8038 260.328 69.4088 259.702L68.875 259.088C68.353 259.608 67.7599 259.867 67.1075 259.867C65.9687 259.867 65.0909 259.112 64.9842 257.978H69.5511ZM65.0198 257.176C65.2214 256.184 66.0043 255.523 66.9652 255.523C67.926 255.523 68.6733 256.148 68.6852 257.176H65.0198ZM71.1322 255.511C71.1322 255.936 71.4643 256.255 71.8795 256.255C72.2947 256.255 72.6268 255.936 72.6268 255.511C72.6268 255.086 72.2947 254.767 71.8795 254.767C71.4643 254.767 71.1322 255.086 71.1322 255.511ZM71.1322 259.962C71.1322 260.387 71.4643 260.706 71.8795 260.706C72.2947 260.706 72.6268 260.387 72.6268 259.962C72.6268 259.537 72.2947 259.218 71.8795 259.218C71.4643 259.218 71.1322 259.537 71.1322 259.962ZM79.1813 259.749L80.9131 257.931C81.6249 257.187 82.0282 256.715 82.3247 256.054C82.4789 255.723 82.5501 255.381 82.5501 255.015C82.5501 253.693 81.5181 252.654 80.0828 252.654C78.5526 252.654 77.5561 253.834 77.5561 255.074C77.5561 255.322 77.5799 255.546 77.6392 255.759H78.5882C78.5407 255.546 78.517 255.334 78.517 255.11C78.517 254.673 78.6593 254.295 78.944 253.976C79.2287 253.657 79.6083 253.504 80.0828 253.504C80.9962 253.504 81.5893 254.2 81.5893 255.062C81.5893 255.806 81.1622 256.396 80.2133 257.388L77.4257 260.34V260.576H82.8704V259.749H79.1813ZM84.4193 259.962C84.4193 260.387 84.7517 260.706 85.1668 260.706C85.582 260.706 85.9142 260.387 85.9142 259.962C85.9142 259.537 85.582 259.218 85.1668 259.218C84.7517 259.218 84.4193 259.537 84.4193 259.962ZM89.1441 259.749L90.8759 257.931C91.5877 257.187 91.991 256.715 92.2875 256.054C92.4417 255.723 92.5129 255.381 92.5129 255.015C92.5129 253.693 91.4809 252.654 90.0456 252.654C88.5154 252.654 87.5189 253.834 87.5189 255.074C87.5189 255.322 87.5427 255.546 87.602 255.759H88.5509C88.5035 255.546 88.4798 255.334 88.4798 255.11C88.4798 254.673 88.6221 254.295 88.9068 253.976C89.1915 253.657 89.5711 253.504 90.0456 253.504C90.959 253.504 91.5521 254.2 91.5521 255.062C91.5521 255.806 91.125 256.396 90.1761 257.388L87.3885 260.34V260.576H92.8332V259.749H89.1441ZM99.21 258.108C99.21 256.656 98.1187 255.83 96.9324 255.712L99.0083 253.055V252.784H94.3109V253.634H97.5493L95.4971 256.243V256.514H96.2681C97.5374 256.514 98.2491 257.117 98.2491 258.12C98.2491 259.159 97.5018 259.856 96.4224 259.856C95.5327 259.856 94.9396 259.372 94.4295 258.628L93.7771 259.088C94.299 260.033 95.2361 260.706 96.4334 260.706C97.917 260.706 99.21 259.678 99.21 258.108ZM105.593 258.108C105.593 256.656 104.501 255.83 103.315 255.712L105.391 253.055V252.784H100.694V253.634H103.932L101.88 256.243V256.514H102.651C103.92 256.514 104.632 257.117 104.632 258.12C104.632 259.159 103.885 259.856 102.805 259.856C101.915 259.856 101.322 259.372 100.812 258.628L100.16 259.088C100.682 260.033 101.619 260.706 102.817 260.706C104.3 260.706 105.593 259.678 105.593 258.108ZM108.431 259.749L110.163 257.931C110.875 257.187 111.278 256.715 111.575 256.054C111.729 255.723 111.8 255.381 111.8 255.015C111.8 253.693 110.768 252.654 109.333 252.654C107.802 252.654 106.806 253.834 106.806 255.074C106.806 255.322 106.83 255.546 106.889 255.759H107.838C107.791 255.546 107.767 255.334 107.767 255.11C107.767 254.673 107.909 254.295 108.194 253.976C108.479 253.657 108.858 253.504 109.333 253.504C110.246 253.504 110.839 254.2 110.839 255.062C110.839 255.806 110.412 256.396 109.463 257.388L106.676 260.34V260.576H112.12V259.749H108.431ZM117.053 257.483C117.053 259.525 118.346 260.706 120.173 260.706C121.964 260.706 123.269 259.525 123.269 257.483V252.784H122.344V257.542C122.344 259.053 121.454 259.856 120.173 259.856C118.88 259.856 117.978 259.053 117.978 257.542V252.784H117.053V257.483ZM124.687 259.029C125.304 260.068 126.348 260.706 127.57 260.706C129.029 260.706 130.097 259.82 130.097 258.533C130.097 257.53 129.503 256.963 128.27 256.361L127.404 255.948C126.787 255.653 126.502 255.499 126.301 255.204C126.194 255.051 126.146 254.862 126.146 254.637C126.146 253.917 126.763 253.504 127.534 253.504C128.246 253.504 128.898 253.858 129.326 254.484L130.002 253.976C129.492 253.185 128.59 252.654 127.546 252.654C126.265 252.654 125.186 253.468 125.186 254.685C125.186 255.723 125.874 256.267 126.953 256.774L127.831 257.187C128.709 257.612 129.136 257.849 129.136 258.557C129.136 259.348 128.495 259.856 127.558 259.856C126.692 259.856 125.957 259.407 125.375 258.521L124.687 259.029ZM131.895 260.576H134.22C136.842 260.576 138.479 258.911 138.479 256.668C138.479 254.401 136.842 252.784 134.22 252.784H131.895V260.576ZM132.821 259.749V253.61H134.209C136.284 253.61 137.518 254.873 137.518 256.668C137.518 258.439 136.273 259.749 134.209 259.749H132.821ZM141.821 260.576H142.746V253.61H145.51V252.784H139.069V253.61H141.821V260.576Z" fill="#DCE6EF"/>
<path d="M18.6422 194.802H401.621V193.115H18.6422V194.802ZM405.858 199.018V274.915H407.552V199.018H405.858ZM401.621 279.131H18.6422V280.818H401.621V279.131ZM14.4057 274.915V199.018H12.7111V274.915H14.4057ZM18.6422 279.131C16.3025 279.131 14.4057 277.243 14.4057 274.915H12.7111C12.7111 278.175 15.3666 280.818 18.6422 280.818V279.131ZM405.858 274.915C405.858 277.243 403.961 279.131 401.621 279.131V280.818C404.897 280.818 407.552 278.175 407.552 274.915H405.858ZM401.621 194.802C403.961 194.802 405.858 196.69 405.858 199.018H407.552C407.552 195.758 404.897 193.115 401.621 193.115V194.802ZM18.6422 193.115C15.3666 193.115 12.7111 195.758 12.7111 199.018H14.4057C14.4057 196.69 16.3025 194.802 18.6422 194.802V193.115Z" fill="#324D68"/>
<path d="M193.185 156.855C193.185 151.266 197.738 146.735 203.353 146.735H216.909C222.524 146.735 227.077 151.266 227.077 156.855V170.348C227.077 175.936 222.524 180.467 216.909 180.467H203.353C197.738 180.467 193.185 175.936 193.185 170.348V156.855Z" fill="#213345"/>
<path d="M207.597 171.401C207.436 171.401 207.275 171.342 207.148 171.215L202.903 166.99C202.657 166.746 202.657 166.341 202.903 166.097C203.148 165.852 203.555 165.852 203.801 166.097L208.046 170.321C208.292 170.566 208.292 170.971 208.046 171.215C207.919 171.333 207.758 171.401 207.597 171.401Z" fill="#F1F5F8"/>
<path d="M207.596 171.397C207.248 171.397 206.96 171.11 206.96 170.764V156.428C206.96 156.083 207.248 155.796 207.596 155.796C207.943 155.796 208.231 156.083 208.231 156.428V170.764C208.231 171.11 207.943 171.397 207.596 171.397Z" fill="#F1F5F8"/>
<path d="M216.918 161.289C216.757 161.289 216.596 161.23 216.469 161.103L212.224 156.879C211.978 156.634 211.978 156.229 212.224 155.985C212.47 155.74 212.877 155.74 213.122 155.985L217.367 160.21C217.613 160.454 217.613 160.859 217.367 161.103C217.24 161.23 217.079 161.289 216.918 161.289Z" fill="#F1F5F8"/>
<path d="M212.663 171.397C212.316 171.397 212.028 171.11 212.028 170.764V156.428C212.028 156.083 212.316 155.796 212.663 155.796C213.011 155.796 213.299 156.083 213.299 156.428V170.764C213.299 171.11 213.019 171.397 212.663 171.397Z" fill="#F1F5F8"/>
<path d="M203.352 149.266H216.909V144.206H203.352V149.266ZM224.535 156.855V170.348H229.619V156.855H224.535ZM216.909 177.938H203.352V182.998H216.909V177.938ZM195.727 170.348V156.855H190.643V170.348H195.727ZM203.352 177.938C199.14 177.938 195.727 174.54 195.727 170.348H190.643C190.643 177.334 196.333 182.998 203.352 182.998V177.938ZM224.535 170.348C224.535 174.54 221.121 177.938 216.909 177.938V182.998C223.928 182.998 229.619 177.334 229.619 170.348H224.535ZM216.909 149.266C221.121 149.266 224.535 152.663 224.535 156.855H229.619C229.619 149.87 223.928 144.206 216.909 144.206V149.266ZM203.352 144.206C196.333 144.206 190.643 149.87 190.643 156.855H195.727C195.727 152.663 199.14 149.266 203.352 149.266V144.206Z" fill="#324D68"/>
<g filter="url(#filter0_dd_4647_122726)">
<path d="M13.5558 298.527C13.5558 295.732 15.8319 293.467 18.6395 293.467H401.619C404.427 293.467 406.702 295.732 406.702 298.527V328.885C406.702 331.68 404.427 333.945 401.619 333.945H18.6395C15.8319 333.945 13.5558 331.68 13.5558 328.885V298.527Z" fill="#4CAFFF"/>
<path d="M168.644 316.29C169.418 317.639 170.782 318.458 172.42 318.458C174.346 318.458 175.772 317.306 175.772 315.562C175.772 314.242 174.998 313.454 173.376 312.711L172.253 312.195C171.268 311.695 170.919 311.558 170.858 310.77C170.858 309.981 171.525 309.556 172.375 309.556C173.224 309.556 173.952 309.981 174.483 310.77L175.605 309.905C174.983 308.828 173.785 308.116 172.375 308.116C170.646 308.116 169.22 309.192 169.22 310.83C169.22 312.165 170.1 312.938 171.556 313.605L172.663 314.121C173.709 314.606 174.134 314.91 174.134 315.622C174.134 316.472 173.436 317.018 172.405 317.018C171.252 317.018 170.449 316.396 169.781 315.425L168.644 316.29ZM187.237 310.845L185.311 315.653L183.022 310.679H182.476L180.216 315.713L178.26 310.845H176.561L179.867 318.458H180.413L182.749 313.499L185.084 318.458H185.63L188.936 310.845H187.237ZM195.987 313.787C195.987 311.786 194.774 310.679 192.939 310.679C191.65 310.679 190.543 311.194 189.8 312.271L190.725 313.211C191.347 312.468 191.954 312.104 192.788 312.104C193.804 312.104 194.38 312.665 194.38 313.696V314.182H192.272C190.589 314.182 189.527 315.016 189.527 316.305C189.527 317.594 190.558 318.458 192.12 318.458C193.136 318.458 193.955 318.11 194.501 317.457V318.292H195.987V313.787ZM194.38 315.471C194.38 316.487 193.531 317.23 192.454 317.23C191.681 317.23 191.15 316.866 191.15 316.244C191.15 315.638 191.62 315.334 192.469 315.334H194.38V315.471ZM205.938 314.561C205.938 312.362 204.391 310.679 202.283 310.679C201.191 310.679 200.236 311.118 199.69 311.892V310.845H198.204V321.021H199.796V317.382C200.387 318.064 201.267 318.458 202.283 318.458C204.391 318.458 205.938 316.79 205.938 314.561ZM204.3 314.576C204.3 316.002 203.299 317.002 202.025 317.002C200.857 317.002 199.781 316.199 199.781 314.561C199.781 312.938 200.857 312.134 202.025 312.134C203.314 312.134 204.3 313.151 204.3 314.576ZM213.722 318.292H215.33V309.723H218.712V308.283H210.356V309.723H213.722V318.292ZM218.511 314.561C218.466 316.669 220.301 318.504 222.439 318.458C224.608 318.504 226.443 316.669 226.397 314.561C226.443 312.453 224.608 310.633 222.439 310.679C220.301 310.648 218.466 312.423 218.511 314.561ZM224.759 314.576C224.759 315.926 223.759 316.987 222.439 316.987C221.135 316.987 220.134 315.956 220.134 314.576C220.134 313.196 221.135 312.134 222.454 312.134C223.743 312.134 224.759 313.196 224.759 314.576ZM228.223 318.292H229.815V306.918H228.223V318.292ZM231.741 314.121L234.744 310.845H232.772L229.861 314.106L233.091 318.292H235.002L231.741 314.121ZM242.716 315.092C242.791 314.743 242.837 314.409 242.837 314.091C242.837 312.15 241.366 310.679 239.395 310.679C237.287 310.633 235.497 312.438 235.543 314.576C235.543 316.775 237.271 318.458 239.546 318.458C240.684 318.458 241.669 318.064 242.519 317.26L241.76 316.168C241.093 316.76 240.365 317.048 239.592 317.048C238.318 317.048 237.362 316.305 237.165 315.092H242.716ZM237.196 313.848C237.438 312.741 238.287 312.028 239.334 312.028C240.38 312.028 241.229 312.711 241.245 313.848H237.196ZM251.167 313.636C251.167 311.862 250.121 310.679 248.377 310.679C247.452 310.679 246.709 310.982 246.148 311.573V310.845H244.662V318.292H246.254V313.848C246.254 312.832 246.967 312.119 247.952 312.119C248.923 312.119 249.575 312.817 249.575 313.848V318.292H251.167V313.636Z" fill="white"/>
</g>
<path d="M18.2074 31.3114C21.0221 31.3114 22.3561 29.9041 22.3561 28.2622C22.3561 24.4947 16.2724 25.9167 16.2724 23.7324C16.2724 22.9554 16.9174 22.3397 18.5006 22.3397C19.3948 22.3397 20.4064 22.6036 21.3299 23.146L21.931 21.6654C21.0367 21.079 19.7467 20.7565 18.5153 20.7565C15.7006 20.7565 14.3813 22.1638 14.3813 23.8203C14.3813 27.6318 20.4797 26.1805 20.4797 28.3941C20.4797 29.1564 19.8053 29.7282 18.2074 29.7282C16.9467 29.7282 15.642 29.259 14.8211 28.5994L14.1614 30.08C15.0116 30.813 16.6095 31.3114 18.2074 31.3114ZM34.511 23.3366L32.3853 29.1418L30.2743 23.3366H28.7351L26.5801 29.1125L24.5131 23.3366H22.7833L25.6566 31.1648H27.4157L29.4681 25.7701L31.4911 31.1648H33.2502L36.1382 23.3366H34.511ZM40.1453 23.2486C38.8846 23.2486 37.6678 23.5711 36.8322 24.2161L37.5505 25.5502C38.1369 25.0664 39.0458 24.7732 39.9254 24.7732C41.2301 24.7732 41.8751 25.4036 41.8751 26.4737V26.591H39.8521C37.4772 26.591 36.5977 27.6172 36.5977 28.9219C36.5977 30.2852 37.7264 31.2674 39.5149 31.2674C40.6877 31.2674 41.5379 30.8863 41.9777 30.2119V31.1648H43.7076V26.5763C43.7076 24.3188 42.4029 23.2486 40.1453 23.2486ZM39.8961 29.9334C38.9579 29.9334 38.4008 29.5083 38.4008 28.8486C38.4008 28.2769 38.738 27.8077 39.984 27.8077H41.8751V28.7166C41.5673 29.5229 40.7903 29.9334 39.8961 29.9334ZM50.3985 23.2486C49.3284 23.2486 48.4195 23.6151 47.8038 24.3627V23.3366H46.0593V34.0088H47.8917V30.2119C48.5221 30.9302 49.4017 31.2674 50.3985 31.2674C52.6854 31.2674 54.3713 29.6842 54.3713 27.2507C54.3713 24.8318 52.6854 23.2486 50.3985 23.2486ZM50.1933 29.6988C48.8739 29.6988 47.8624 28.746 47.8624 27.2507C47.8624 25.7554 48.8739 24.8025 50.1933 24.8025C51.5127 24.8025 52.5095 25.7554 52.5095 27.2507C52.5095 28.746 51.5127 29.6988 50.1933 29.6988Z" fill="white"/>
<defs>
<filter id="filter0_dd_4647_122726" x="3.66728" y="290.995" width="412.924" height="62.7271" filterUnits="userSpaceOnUse" color-interpolation-filters="sRGB">
<feFlood flood-opacity="0" result="BackgroundImageFix"/>
<feColorMatrix in="SourceAlpha" type="matrix" values="0 0 0 0 0 0 0 0 0 0 0 0 0 0 0 0 0 0 127 0" result="hardAlpha"/>
<feOffset dy="9.88848"/>
<feGaussianBlur stdDeviation="4.94424"/>
<feColorMatrix type="matrix" values="0 0 0 0 0.0941176 0 0 0 0 0.152941 0 0 0 0 0.294118 0 0 0 0.08 0"/>
<feBlend mode="normal" in2="BackgroundImageFix" result="effect1_dropShadow_4647_122726"/>
<feColorMatrix in="SourceAlpha" type="matrix" values="0 0 0 0 0 0 0 0 0 0 0 0 0 0 0 0 0 0 127 0" result="hardAlpha"/>
<feOffset dy="4.94424"/>
<feGaussianBlur stdDeviation="3.70818"/>
<feColorMatrix type="matrix" values="0 0 0 0 0.0941176 0 0 0 0 0.152941 0 0 0 0 0.294118 0 0 0 0.12 0"/>
<feBlend mode="normal" in2="effect1_dropShadow_4647_122726" result="effect2_dropShadow_4647_122726"/>
<feBlend mode="normal" in="SourceGraphic" in2="effect2_dropShadow_4647_122726" result="shape"/>
</filter>
<linearGradient id="paint0_linear_4647_122726" x1="403.744" y1="37.1826" x2="-0.0518183" y2="264.54" gradientUnits="userSpaceOnUse">
<stop stop-color="#15202B"/>
<stop offset="0.52825" stop-color="#010F1A"/>
</linearGradient>
<linearGradient id="paint1_linear_4647_122726" x1="323.193" y1="80.8709" x2="310.948" y2="81.0433" gradientUnits="userSpaceOnUse">
<stop stop-color="#40BAD5"/>
<stop offset="1" stop-color="#035AA6"/>
</linearGradient>
<linearGradient id="paint2_linear_4647_122726" x1="317.994" y1="79.819" x2="315.641" y2="72.812" gradientUnits="userSpaceOnUse">
<stop stop-color="#40BAD5"/>
<stop offset="1" stop-color="#035AA6"/>
</linearGradient>
<linearGradient id="paint3_linear_4647_122726" x1="317.115" y1="79.5431" x2="312.399" y2="72.4369" gradientUnits="userSpaceOnUse">
<stop stop-color="#40BAD5"/>
<stop offset="1" stop-color="#035AA6"/>
</linearGradient>
<linearGradient id="paint4_linear_4647_122726" x1="315.757" y1="80.4433" x2="311.042" y2="73.337" gradientUnits="userSpaceOnUse">
<stop stop-color="#40BAD5"/>
<stop offset="1" stop-color="#035AA6"/>
</linearGradient>
<linearGradient id="paint5_linear_4647_122726" x1="316.435" y1="79.9931" x2="311.72" y2="72.8869" gradientUnits="userSpaceOnUse">
<stop stop-color="#40BAD5"/>
<stop offset="1" stop-color="#035AA6"/>
</linearGradient>
<linearGradient id="paint6_linear_4647_122726" x1="315.566" y1="227.604" x2="303.322" y2="227.777" gradientUnits="userSpaceOnUse">
<stop stop-color="#40BAD5"/>
<stop offset="1" stop-color="#035AA6"/>
</linearGradient>
<linearGradient id="paint7_linear_4647_122726" x1="310.369" y1="226.547" x2="308.017" y2="219.54" gradientUnits="userSpaceOnUse">
<stop stop-color="#40BAD5"/>
<stop offset="1" stop-color="#035AA6"/>
</linearGradient>
<linearGradient id="paint8_linear_4647_122726" x1="309.488" y1="226.277" x2="304.773" y2="219.171" gradientUnits="userSpaceOnUse">
<stop stop-color="#40BAD5"/>
<stop offset="1" stop-color="#035AA6"/>
</linearGradient>
<linearGradient id="paint9_linear_4647_122726" x1="308.131" y1="227.178" x2="303.416" y2="220.072" gradientUnits="userSpaceOnUse">
<stop stop-color="#40BAD5"/>
<stop offset="1" stop-color="#035AA6"/>
</linearGradient>
<linearGradient id="paint10_linear_4647_122726" x1="308.809" y1="226.728" x2="304.094" y2="219.622" gradientUnits="userSpaceOnUse">
<stop stop-color="#40BAD5"/>
<stop offset="1" stop-color="#035AA6"/>
</linearGradient>
</defs>
</svg>
