<svg width="29" height="29" viewBox="0 0 29 29" fill="none" xmlns="http://www.w3.org/2000/svg">
<g opacity="0.9">
<circle r="14.5" transform="matrix(-1 0 0 1 14.5 14.5)" fill="#9DE4EB"/>
<g filter="url(#filter0_iii_4690_124316)">
<circle r="13.05" transform="matrix(-1 0 0 1 14.5 14.5)" fill="#9DE4EB"/>
</g>
<g clip-path="url(#clip0_4690_124316)">
<path fill-rule="evenodd" clip-rule="evenodd" d="M19.9095 8.64067C20.1791 7.23871 19.1007 5.94458 17.6987 5.94458C16.4585 5.94458 15.434 6.9691 15.434 8.2093V11.0132C15.1104 11.0132 14.7869 10.9593 14.4634 10.9593C14.1398 10.9593 13.8702 10.9593 13.5467 11.0132V8.2093C13.5467 6.9691 12.5222 5.94458 11.282 5.94458C9.88001 5.94458 8.80158 7.23871 9.01726 8.64067L9.6104 11.9299C7.50745 12.8466 5.8898 14.4642 5.8898 16.4593V17.6995C5.8898 19.3711 6.96823 20.7731 8.53197 21.6898C10.0957 22.6604 12.1447 23.1996 14.4634 23.1996C16.782 23.1996 18.831 22.6604 20.3948 21.6898C21.9046 20.7731 22.983 19.3711 22.983 17.6995V16.4593C22.983 14.4642 21.4193 12.8466 19.3163 11.9299L19.9095 8.64067ZM10.4192 12.3613L9.71825 8.47891C9.55648 7.50831 10.2575 6.59164 11.282 6.59164C12.1447 6.59164 12.8457 7.29263 12.8457 8.15538V11.7142C13.0614 11.6603 13.331 11.6603 13.5467 11.6603C13.8702 11.6603 14.1398 11.6064 14.4634 11.6064C14.7869 11.6064 15.1104 11.6064 15.434 11.6603C15.6497 11.6603 15.9193 11.7142 16.135 11.7142V8.2093C16.135 7.34655 16.8359 6.64556 17.6987 6.64556C18.6693 6.64556 19.4242 7.56224 19.2085 8.53283L18.5075 12.4152C20.7722 13.278 22.282 14.7878 22.282 16.5133V17.7535C22.282 20.3956 18.7771 22.5525 14.4634 22.5525C10.1496 22.5525 6.6447 20.3956 6.6447 17.7535V16.5133C6.59078 14.7338 8.10059 13.224 10.4192 12.3613Z" fill="#633001"/>
<path d="M6.52477 17.6535C6.52477 20.3178 10.0591 22.4928 14.4091 22.4928C18.7591 22.4928 22.2935 20.3178 22.2935 17.6535V16.4028H6.47039V17.6535H6.52477Z" fill="#FEDC90"/>
<path fill-rule="evenodd" clip-rule="evenodd" d="M19.2485 8.41021C19.466 7.43146 18.7048 6.50708 17.726 6.50708C16.856 6.50708 16.1491 7.21396 16.1491 8.08396V11.6727C15.6054 11.6183 15.0616 11.564 14.4635 11.564C13.9198 11.564 13.376 11.6183 12.8323 11.6727V8.08396C12.8323 7.21396 12.1254 6.50708 11.2554 6.50708C10.2766 6.50708 9.51539 7.43146 9.67852 8.41021L10.3854 12.3252C8.10164 13.1952 6.52477 14.7177 6.52477 16.4577C6.52477 19.1221 10.0591 21.2971 14.4091 21.2971C18.7591 21.2971 22.2935 19.1221 22.2935 16.4577C22.2935 14.7177 20.771 13.1952 18.4873 12.3252L19.2485 8.41021Z" fill="#D1884F"/>
<path d="M16.639 16.0767C16.639 16.7836 17.0197 17.3817 17.509 17.3817C17.9984 17.3817 18.379 16.7836 18.379 16.0767C18.379 15.3699 17.9984 14.7717 17.509 14.7717C17.0197 14.7717 16.639 15.3699 16.639 16.0767Z" fill="#633001"/>
<path d="M10.6037 16.0767C10.6037 16.7836 10.9843 17.3817 11.4737 17.3817C11.9631 17.3817 12.3437 16.7836 12.3437 16.0767C12.3437 15.3699 11.9631 14.7717 11.4737 14.7717C10.9843 14.7717 10.6037 15.3699 10.6037 16.0767Z" fill="#633001"/>
</g>
</g>
<defs>
<filter id="filter0_iii_4690_124316" x="1.16001" y="1.15995" width="26.68" height="26.9701" filterUnits="userSpaceOnUse" color-interpolation-filters="sRGB">
<feFlood flood-opacity="0" result="BackgroundImageFix"/>
<feBlend mode="normal" in="SourceGraphic" in2="BackgroundImageFix" result="shape"/>
<feColorMatrix in="SourceAlpha" type="matrix" values="0 0 0 0 0 0 0 0 0 0 0 0 0 0 0 0 0 0 127 0" result="hardAlpha"/>
<feOffset dx="0.29" dy="0.29"/>
<feGaussianBlur stdDeviation="0.29"/>
<feComposite in2="hardAlpha" operator="arithmetic" k2="-1" k3="1"/>
<feColorMatrix type="matrix" values="0 0 0 0 0.0595833 0 0 0 0 0.501649 0 0 0 0 0.55 0 0 0 0.1 0"/>
<feBlend mode="normal" in2="shape" result="effect1_innerShadow_4690_124316"/>
<feColorMatrix in="SourceAlpha" type="matrix" values="0 0 0 0 0 0 0 0 0 0 0 0 0 0 0 0 0 0 127 0" result="hardAlpha"/>
<feOffset dx="-0.29" dy="-0.29"/>
<feGaussianBlur stdDeviation="0.29"/>
<feComposite in2="hardAlpha" operator="arithmetic" k2="-1" k3="1"/>
<feColorMatrix type="matrix" values="0 0 0 0 1 0 0 0 0 1 0 0 0 0 1 0 0 0 0.1 0"/>
<feBlend mode="normal" in2="effect1_innerShadow_4690_124316" result="effect2_innerShadow_4690_124316"/>
<feColorMatrix in="SourceAlpha" type="matrix" values="0 0 0 0 0 0 0 0 0 0 0 0 0 0 0 0 0 0 127 0" result="hardAlpha"/>
<feOffset dy="0.58"/>
<feGaussianBlur stdDeviation="0.29"/>
<feComposite in2="hardAlpha" operator="arithmetic" k2="-1" k3="1"/>
<feColorMatrix type="matrix" values="0 0 0 0 0.0588235 0 0 0 0 0.501961 0 0 0 0 0.54902 0 0 0 0.1 0"/>
<feBlend mode="normal" in2="effect2_innerShadow_4690_124316" result="effect3_innerShadow_4690_124316"/>
</filter>
<clipPath id="clip0_4690_124316">
<rect width="17.2369" height="17.4" fill="white" transform="matrix(-1 0 0 1 23.055 5.80005)"/>
</clipPath>
</defs>
</svg>
