<svg width="24" height="24" viewBox="0 0 24 24" fill="none" xmlns="http://www.w3.org/2000/svg">
<g clip-path="url(#clip0_4700_1564)">
<path d="M12 0C18.6271 0 24 5.37288 24 12C24 18.6271 18.6269 24 12 24C5.37312 24 0 18.6286 0 12C0 5.37144 5.37216 0 12 0Z" fill="#53AE94"/>
<path d="M13.4811 10.401V8.61592H17.5632V5.896H6.44738V8.61592H10.53V10.3996C7.21202 10.552 4.71722 11.2091 4.71722 11.9963C4.71722 12.7835 7.21322 13.4406 10.53 13.594V19.312H13.482V13.5935C16.794 13.4406 19.2838 12.784 19.2838 11.9975C19.2838 11.211 16.794 10.5544 13.482 10.4015L13.4811 10.401ZM13.482 13.1092V13.1078C13.3987 13.113 12.9708 13.1387 12.018 13.1387C11.2563 13.1387 10.7203 13.1171 10.5315 13.1073V13.1097C7.6001 12.9798 5.41202 12.4694 5.41202 11.8586C5.41202 11.2478 7.60034 10.738 10.5315 10.6079V12.6011C10.7235 12.6143 11.2726 12.6467 12.0305 12.6467C12.9408 12.6467 13.3985 12.6088 13.4825 12.6011V10.6079C16.4081 10.7382 18.5911 11.2492 18.5911 11.8578C18.5911 12.4665 16.4071 12.9777 13.4825 13.108" fill="white"/>
<g clip-path="url(#clip1_4700_1564)">
<path d="M12 24C18.6274 24 24 18.6274 24 12C24 5.37258 18.6274 0 12 0C5.37258 0 0 5.37258 0 12C0 18.6274 5.37258 24 12 24Z" fill="#7B3FE4"/>
<path d="M19.9999 12.2801V15.9003C19.9986 16.1261 19.9389 16.3477 19.8267 16.5433C19.7146 16.739 19.5537 16.9021 19.3599 17.0168L16.2349 18.8231C16.0413 18.9389 15.8202 19 15.5949 19C15.3695 19 15.1484 18.9389 14.9549 18.8231L11.8299 17.0168C11.636 16.9021 11.4752 16.739 11.363 16.5433C11.2508 16.3477 11.1912 16.1261 11.1899 15.9003V14.8843L12.7899 13.9522V15.7184L15.5899 17.3492L18.3899 15.7184V12.4645L15.5899 10.8337L9.02989 14.6472C8.83453 14.7576 8.61409 14.8157 8.38987 14.8157C8.16565 14.8157 7.94524 14.7576 7.74988 14.6472L4.62487 12.8333C4.43404 12.7169 4.27627 12.5532 4.1668 12.3579C4.05733 12.1625 3.99985 11.9422 3.99988 11.7181V8.09786C4.00117 7.87211 4.06084 7.65056 4.17301 7.45487C4.28521 7.25918 4.44607 7.09604 4.63987 6.98144L7.76488 5.17508C7.95883 5.06045 8.17981 5 8.40487 5C8.62996 5 8.85094 5.06045 9.04489 5.17508L12.1699 6.98144C12.3637 7.09604 12.5246 7.25918 12.6367 7.45487C12.7489 7.65056 12.8086 7.87211 12.8099 8.09786V9.11393L11.1999 10.0397V8.28353L8.39989 6.65279L5.59987 8.28353V11.5337L8.39989 13.1644L14.9599 9.35102C15.1552 9.24056 15.3757 9.18254 15.5999 9.18254C15.8241 9.18254 16.0445 9.24056 16.2399 9.35102L19.3649 11.1649C19.5576 11.2801 19.7173 11.4433 19.8286 11.6386C19.9399 11.8341 19.9989 12.055 19.9999 12.2801Z" fill="white"/>
</g>
</g>
<defs>
<clipPath id="clip0_4700_1564">
<rect width="24" height="24" fill="white"/>
</clipPath>
<clipPath id="clip1_4700_1564">
<rect width="24" height="24" fill="white"/>
</clipPath>
</defs>
</svg>
